<?xml version="1.0" standalone="no"?>
<!DOCTYPE svg PUBLIC "-//W3C//DTD SVG 20010904//EN"
 "http://www.w3.org/TR/2001/REC-SVG-20010904/DTD/svg10.dtd">
<svg version="1.0" xmlns="http://www.w3.org/2000/svg"
 width="960.000000pt" height="640.000000pt" viewBox="0 0 960.000000 640.000000"
 preserveAspectRatio="xMidYMid meet">
<metadata>
Created by potrace 1.15, written by Peter Selinger 2001-2017
</metadata>
<g transform="translate(0.000000,640.000000) scale(0.100000,-0.100000)"
fill="#000000" stroke="none">
<path d="M0 5520 l0 -350 29 0 29 0 -4 63 c-2 34 -9 150 -14 257 -16 301 -22
380 -31 380 -5 0 -9 -157 -9 -350z"/>
<path d="M30 5084 c0 -7 71 -147 204 -404 70 -135 77 -145 105 -148 17 -2 31
1 31 7 0 6 -18 46 -41 88 -23 43 -84 161 -137 263 -52 102 -100 188 -106 192
-14 9 -56 10 -56 2z"/>
<path d="M0 4842 c0 -170 3 -223 16 -263 l16 -49 114 0 c66 0 114 4 114 10 0
10 -194 400 -235 471 l-25 44 0 -213z"/>
<path d="M6356 4882 c-3 -6 -4 -16 -1 -24 3 -7 -6 -36 -19 -64 -24 -51 -50
-124 -85 -244 -60 -209 -68 -225 -106 -232 -20 -4 -24 0 -28 31 -2 20 1 42 6
49 6 8 11 38 11 68 1 44 -3 58 -25 79 -14 15 -42 28 -65 32 -21 3 -45 15 -52
25 -7 10 -18 16 -23 12 -6 -3 -23 -1 -38 6 -24 9 -34 8 -67 -10 -58 -33 -74
-54 -77 -105 -1 -25 1 -45 5 -45 4 0 8 7 8 15 0 9 6 12 15 9 11 -5 12 -11 4
-25 -5 -11 -6 -19 -1 -19 14 0 22 39 10 46 -10 6 19 44 34 44 4 0 6 -11 2 -25
-5 -20 -1 -26 19 -34 14 -5 28 -14 31 -20 3 -5 21 -13 39 -17 17 -4 26 -9 20
-11 -7 -3 -13 -11 -13 -19 0 -8 -4 -14 -9 -14 -6 0 -5 -13 1 -32 9 -24 8 -33
0 -36 -14 -4 -16 -32 -3 -32 32 0 57 32 32 42 -4 2 -12 14 -16 27 -7 22 -5 23
21 16 16 -4 37 -7 47 -7 10 0 17 -6 17 -16 0 -14 2 -15 10 -2 14 23 24 3 12
-27 -6 -15 -13 -40 -16 -54 -10 -45 -115 -104 -140 -78 -3 3 -6 21 -7 40 -2
18 -6 39 -10 44 -4 6 -9 23 -11 39 -3 25 -9 30 -50 41 -52 13 -89 2 -124 -36
-17 -18 -16 -19 24 -19 83 0 142 -41 142 -98 0 -29 -2 -33 -15 -22 -21 17 -55
3 -55 -24 0 -32 18 -46 46 -36 21 8 24 6 25 -13 1 -14 4 -9 11 16 10 38 38 52
38 18 0 -11 7 -26 15 -35 8 -8 15 -17 15 -19 0 -9 -59 -29 -68 -23 -5 3 -15
-1 -22 -9 -16 -19 -30 -19 -30 -1 0 7 -7 19 -16 27 -13 10 -17 10 -24 -2 -7
-9 -5 -15 5 -17 8 -2 15 -7 15 -12 0 -4 -10 -6 -22 -3 -18 5 -21 3 -11 -7 9
-10 7 -16 -9 -30 -15 -12 -18 -19 -10 -24 7 -4 12 -1 12 9 0 11 7 16 23 14 12
-2 32 3 45 9 14 8 22 9 22 2 0 -5 -6 -10 -13 -10 -7 0 -23 -13 -35 -30 -13
-16 -31 -30 -41 -30 -11 0 -21 -5 -23 -12 -2 -6 -14 5 -27 25 -12 21 -27 34
-32 31 -13 -8 -39 15 -39 33 0 8 6 13 13 10 6 -2 11 -12 11 -21 -2 -17 11 -22
20 -7 3 5 -5 20 -19 32 -13 13 -25 30 -25 37 0 6 -4 12 -10 12 -5 0 -10 6 -10
13 0 11 -37 39 -85 65 -18 10 -18 12 12 18 18 3 30 11 27 18 -2 6 16 34 41 61
49 52 46 71 -7 59 -21 -4 -27 -2 -23 8 3 8 -3 25 -15 38 -19 22 -24 39 -21 68
1 6 -8 12 -19 12 -14 0 -20 5 -18 16 2 9 -4 18 -12 19 -8 2 -23 6 -32 10 -11
4 -18 3 -18 -4 0 -6 9 -11 20 -11 17 0 20 -5 17 -27 -2 -18 -11 -29 -23 -32
-16 -3 -17 -1 -5 13 12 14 10 16 -13 16 -23 0 -26 3 -21 28 l5 27 -11 -25 c-6
-14 -13 -35 -15 -47 -3 -22 4 -26 36 -24 11 0 11 -1 2 -5 -9 -4 -10 -10 -2
-19 6 -7 8 -20 4 -29 -7 -18 -24 -22 -24 -6 0 19 -28 10 -33 -10 -6 -23 -37
-27 -37 -5 0 8 -3 15 -7 15 -5 0 -8 -35 -8 -77 0 -62 -3 -78 -15 -78 -8 0 -16
7 -17 15 -1 8 -5 41 -8 73 -9 80 -28 74 -23 -8 2 -36 3 -65 1 -65 -1 0 -12 8
-23 17 -13 12 -20 30 -20 55 0 37 -19 65 -21 31 -3 -57 -4 -58 -29 -55 -40 4
-53 -5 -40 -28 15 -28 -4 -26 -35 5 -21 21 -25 35 -25 80 0 57 -15 110 -28
101 -5 -3 -7 -18 -4 -34 3 -26 1 -29 -27 -30 -29 -1 -31 2 -31 35 0 23 -4 33
-12 31 -8 -3 -12 -19 -10 -41 3 -27 -1 -39 -12 -43 -22 -8 -20 -31 3 -39 21
-6 35 -70 40 -182 2 -34 3 -36 13 -16 10 21 48 39 48 22 0 -5 10 1 21 12 17
17 23 19 30 8 8 -12 11 -12 19 1 5 8 11 20 14 25 5 14 49 -30 51 -52 0 -10 4
-24 9 -31 7 -12 -29 -32 -59 -32 -7 0 -15 -7 -19 -15 -7 -19 28 -38 54 -30 12
4 20 2 20 -5 0 -10 15 -8 56 7 18 7 10 -65 -9 -84 -15 -15 -21 -16 -38 -5 -16
10 -22 10 -35 -3 -9 -8 -20 -15 -26 -15 -7 0 -6 -5 1 -14 17 -20 -2 -29 -46
-21 -27 5 -34 3 -31 -7 4 -9 19 -12 47 -10 32 3 41 0 41 -12 0 -10 9 -16 25
-16 29 0 35 -27 8 -37 -9 -4 -24 -14 -34 -24 -16 -16 -16 -18 3 -33 10 -9 16
-21 12 -27 -4 -6 -22 6 -43 29 -24 25 -42 37 -50 33 -9 -6 -5 -13 13 -24 17
-12 23 -22 19 -37 -4 -13 -11 -19 -20 -16 -8 3 -17 6 -19 6 -2 0 -4 7 -4 15 0
8 -7 15 -15 15 -20 0 -19 -6 10 -44 23 -31 24 -34 8 -40 -12 -5 -14 -9 -6 -14
13 -8 6 -52 -8 -52 -5 0 -9 11 -9 25 0 15 -6 25 -14 25 -10 0 -14 12 -13 43 0
27 -8 61 -25 95 -27 54 -29 97 -5 117 16 14 16 147 -1 153 -7 2 -12 -4 -12
-14 0 -17 -1 -17 -14 1 -12 17 -14 15 -20 -21 -4 -21 -13 -45 -18 -52 -6 -7
-8 -15 -4 -19 3 -3 6 0 6 8 0 7 9 -3 20 -24 23 -43 25 -54 7 -38 -8 6 -18 7
-22 3 -5 -4 -6 -2 -3 3 4 6 -17 11 -53 12 -37 2 -58 -1 -54 -7 8 -12 3 -12
-28 -1 -18 7 -30 6 -43 -4 -18 -14 -18 -14 1 -16 11 -1 24 -1 29 0 5 1 2 -9
-7 -23 -10 -15 -13 -27 -7 -31 15 -9 12 -25 -5 -25 -20 0 -19 -14 2 -31 10 -9
42 -14 90 -14 81 0 76 3 113 -77 15 -31 19 -152 6 -187 -6 -16 -5 -21 3 -17 6
4 11 1 11 -8 0 -8 3 -22 7 -32 5 -14 2 -16 -16 -11 -23 6 -75 -15 -64 -26 3
-4 1 -7 -5 -7 -7 0 -12 -5 -12 -11 0 -20 -45 -48 -80 -50 -32 -2 -32 -2 -7 -6
23 -4 26 -7 16 -19 -6 -8 -20 -14 -31 -14 -17 0 -18 -3 -8 -15 15 -18 12 -18
-28 -4 -17 6 -41 25 -55 42 -24 33 -67 149 -67 181 0 12 -5 16 -15 12 -9 -3
-20 2 -27 13 -6 11 -17 17 -23 15 -20 -8 -34 19 -47 89 -7 37 -15 67 -18 67
-3 0 -7 14 -8 30 -6 74 -72 200 -106 200 -5 0 0 -10 11 -22 35 -38 61 -105 68
-173 l7 -64 -43 -40 c-24 -23 -51 -41 -59 -41 -8 0 -26 -7 -39 -14 -19 -11
-21 -14 -7 -19 20 -8 21 -60 1 -77 -21 -17 -58 8 -74 52 -19 51 -42 91 -61
108 -15 13 -23 35 -46 119 -4 14 -10 19 -15 14 -6 -6 -5 -58 2 -134 6 -70 8
-154 4 -194 -4 -38 -7 -90 -7 -114 1 -29 -5 -52 -18 -68 -10 -13 -16 -31 -13
-39 3 -8 0 -14 -6 -14 -22 0 -10 -16 30 -40 38 -23 92 -100 70 -100 -5 0 -13
9 -16 21 -5 16 -10 18 -21 8 -11 -9 -14 -8 -14 4 0 10 -6 14 -15 11 -8 -4 -15
-1 -15 5 0 7 -13 17 -30 22 -16 6 -30 16 -30 22 0 7 -5 4 -11 -6 -16 -27 -23
-127 -8 -127 7 0 9 -9 5 -25 -4 -14 -2 -25 3 -25 5 0 9 -15 9 -34 0 -19 2 -39
5 -44 8 -12 -16 -89 -34 -110 -18 -21 -31 -62 -19 -62 4 0 13 -21 19 -47 10
-37 9 -48 -1 -54 -12 -8 -28 32 -40 100 -2 8 -12 25 -23 37 -12 12 -32 45 -45
73 l-23 51 23 25 c23 24 23 27 12 113 -6 48 -13 103 -16 122 -5 26 -4 30 3 15
5 -11 10 -15 10 -10 2 16 21 -18 21 -37 0 -9 5 -29 12 -45 6 -15 12 -32 12
-37 2 -20 24 -15 30 6 9 31 13 138 4 138 -3 0 -13 3 -22 6 -12 5 -16 0 -17
-17 -1 -22 -1 -22 -9 4 -5 16 -14 35 -20 42 -8 9 -8 20 -2 31 6 11 11 13 16 5
17 -26 39 -8 67 57 16 37 34 75 39 84 6 10 15 64 20 120 6 57 15 142 20 189 6
47 10 94 10 104 0 17 -1 17 -20 0 -10 -9 -26 -15 -35 -12 -21 9 -19 41 6 63
31 28 59 90 46 103 -8 8 -6 15 5 23 26 22 30 48 8 48 -26 0 -26 16 0 23 26 7
25 23 -2 41 -31 18 -88 28 -88 15 0 -6 -9 -8 -20 -4 -25 8 -27 -10 -2 -24 15
-9 14 -11 -8 -12 l-25 -1 25 -7 c17 -5 21 -9 12 -15 -22 -13 -13 -36 14 -36
21 0 25 4 21 19 -3 14 0 17 13 14 21 -6 34 -43 20 -57 -5 -5 -22 -11 -37 -12
-74 -8 -87 -22 -61 -64 19 -29 -3 -48 -37 -32 l-25 12 20 -40 c21 -42 26 -85
10 -95 -26 -16 -112 97 -112 149 0 20 -4 33 -9 30 -5 -3 -9 -16 -9 -30 0 -14
-4 -23 -10 -19 -6 3 -19 4 -29 0 -17 -5 -19 -13 -14 -53 3 -26 9 -50 15 -53 7
-4 7 -9 0 -13 -13 -8 -54 33 -46 46 6 10 -21 21 -139 54 -49 14 -107 34 -128
45 -21 10 -42 19 -48 19 -9 0 0 -58 14 -79 8 -14 -20 -61 -37 -61 -7 0 -5 6 4
13 22 16 29 75 8 62 -5 -3 -10 1 -10 9 0 8 -10 23 -23 33 -32 25 -40 40 -47
90 -6 39 -5 41 12 32 17 -9 18 -8 10 8 -6 10 -13 34 -15 53 -3 19 -6 37 -6 39
-1 2 -13 -14 -27 -35 -15 -21 -32 -42 -38 -47 -12 -8 -76 0 -88 12 -11 10 -16
121 -6 121 4 0 8 4 8 10 0 5 -6 7 -14 4 -9 -4 -18 7 -27 33 -19 59 -68 132
-99 148 -20 10 -47 12 -98 8 -98 -8 -142 -36 -133 -86 1 -5 -4 -5 -11 -1 -7 5
-27 7 -44 5 -42 -3 -51 14 -17 33 l28 15 -32 1 c-26 0 -30 3 -26 20 3 11 0 20
-6 20 -11 0 -12 -9 -15 -75 -1 -28 -4 -30 -33 -27 -40 3 -41 -8 -7 -45 26 -28
26 -28 4 -31 -30 -5 -58 24 -66 65 -6 31 -9 34 -33 30 -25 -5 -27 -3 -27 29 0
23 -9 43 -28 63 -28 30 -79 54 -90 44 -3 -3 -19 -1 -35 5 -29 10 -31 9 -31
-12 0 -29 38 -56 79 -56 16 0 36 -3 45 -6 22 -8 56 -89 56 -131 0 -20 4 -32
10 -28 6 4 10 -8 10 -29 0 -19 -5 -38 -11 -41 -6 -4 -8 -13 -5 -20 2 -7 -8
-28 -23 -46 -15 -19 -32 -47 -38 -64 -5 -17 -18 -32 -29 -34 -18 -3 -18 -3 -1
17 21 23 9 36 -26 27 -20 -5 -26 -2 -31 17 -8 33 -7 48 4 48 5 0 7 -7 4 -15
-5 -11 1 -15 24 -15 21 0 31 6 35 20 3 11 12 20 20 20 22 0 29 41 10 62 -20
22 -43 7 -25 -15 13 -15 6 -27 -14 -27 -8 0 -11 6 -8 15 7 17 -19 31 -36 20
-8 -5 -8 -10 0 -20 8 -9 5 -14 -12 -18 -29 -8 -35 -1 -21 22 16 25 4 35 -17
16 -15 -14 -20 -13 -44 6 -15 11 -46 23 -69 26 -23 4 -45 11 -49 16 -3 6 -4
35 -1 64 5 45 1 65 -20 111 -32 71 -43 100 -46 121 -2 13 -87 70 -116 77 -16
4 -35 0 -53 -12 -15 -10 -36 -18 -47 -19 -11 0 -24 -10 -30 -22 -10 -24 -25
-31 -25 -13 0 6 -8 10 -17 10 -17 -1 -17 -1 -1 -10 10 -6 14 -18 11 -32 -3
-17 -2 -19 5 -9 13 18 35 4 29 -19 -4 -14 4 -12 40 12 49 34 110 45 133 26 16
-14 40 -74 40 -101 0 -19 -15 -23 -26 -5 -4 7 -3 8 4 4 7 -4 12 -1 12 8 0 11
-10 16 -31 16 -27 0 -30 -3 -27 -27 2 -22 10 -29 36 -34 18 -4 36 -9 39 -13
10 -10 -17 -113 -33 -126 -10 -9 -14 -9 -14 -1 0 19 -17 12 -23 -9 -4 -16 -12
-19 -37 -16 -17 2 -35 7 -40 12 -11 13 -19 114 -9 114 5 0 9 5 9 10 0 6 -6 10
-12 10 -25 0 -72 72 -71 107 1 31 0 32 -12 16 -12 -17 -14 -16 -20 10 -8 32
-14 33 -42 8 -14 -13 -29 -17 -48 -13 -17 3 -41 -2 -60 -12 l-32 -18 18 -36
c13 -24 16 -39 9 -46 -18 -18 -10 -29 9 -12 10 9 34 19 54 23 30 4 37 2 52
-21 10 -14 14 -33 11 -42 -3 -8 -1 -24 4 -35 9 -17 7 -19 -17 -19 -48 0 -58
-14 -31 -43 28 -30 78 -47 78 -26 0 9 3 10 10 3 7 -7 6 -21 -4 -45 -9 -19 -15
-30 -16 -25 0 5 -6 3 -14 -3 -16 -13 -46 -5 -46 13 0 7 -7 21 -15 32 -14 18
-15 18 -9 0 6 -15 3 -17 -14 -12 -11 4 -23 2 -27 -4 -3 -6 -11 -8 -16 -5 -5 3
-6 0 -3 -8 3 -8 1 -18 -5 -22 -6 -3 -11 -17 -11 -31 0 -27 26 -32 61 -14 24
13 25 -2 1 -23 -26 -23 -104 -23 -124 1 -8 9 -24 37 -36 62 -20 40 -22 42 -22
18 0 -16 -3 -28 -7 -28 -14 1 -53 38 -53 50 0 6 -4 9 -10 5 -5 -3 -28 6 -51
21 -37 23 -43 24 -56 11 -35 -34 -43 -167 -13 -212 23 -35 26 -65 6 -65 -19 0
-107 81 -130 120 l-19 33 27 -7 c21 -5 26 -3 26 13 0 10 7 21 15 25 32 12 12
22 -37 18 -66 -5 -114 24 -143 86 -12 23 -28 50 -38 59 -15 15 -17 15 -27 -11
-20 -53 -24 -132 -7 -156 10 -14 13 -34 10 -56 -5 -32 12 -64 34 -64 14 0 43
-56 43 -83 0 -20 -4 -24 -20 -20 -11 3 -20 9 -20 14 0 5 -4 9 -10 9 -5 0 -10
-9 -10 -20 0 -23 -10 -26 -29 -7 -10 10 -11 3 -6 -33 4 -32 -2 -19 -23 47 -41
131 -63 159 -102 133 -13 -9 -13 -12 3 -21 23 -13 22 -52 -4 -135 -15 -48 -20
-83 -16 -115 4 -28 1 -51 -6 -58 -7 -7 -8 -14 -1 -21 9 -9 5 -82 -9 -162 -2
-15 0 -25 5 -22 5 3 6 -20 2 -53 -6 -63 -6 -68 -1 -128 2 -30 -2 -44 -16 -55
-18 -15 -17 -16 18 -29 29 -10 34 -15 24 -27 -6 -8 -19 -14 -28 -13 -12 0 -12
2 4 10 16 7 13 8 -13 4 -38 -5 -82 18 -82 43 0 15 -2 14 -17 -1 -16 -15 -16
-18 -1 -29 9 -7 18 -22 20 -33 4 -20 37 -23 49 -4 3 6 15 5 30 -1 22 -10 23
-10 2 -6 -15 3 -23 -1 -23 -9 0 -19 -38 -29 -55 -15 -11 10 -15 7 -21 -14 -3
-14 -10 -26 -15 -26 -5 0 -6 -6 -3 -14 6 -14 91 -39 105 -30 9 5 0 44 -13 61
-7 9 1 17 27 28 49 20 72 20 56 1 -19 -22 -22 -56 -6 -63 8 -3 12 -9 9 -14 -3
-5 2 -12 11 -15 13 -5 10 -12 -16 -35 l-32 -28 41 -7 c29 -4 39 -10 35 -20 -3
-8 -10 -11 -16 -7 -7 4 -8 -1 -4 -13 6 -17 6 -17 -5 -3 -7 9 -21 16 -31 16
-15 0 -13 -5 10 -26 21 -20 30 -23 36 -14 17 28 30 13 23 -27 -3 -22 -3 -40 2
-40 6 0 7 -20 3 -62 -3 -23 -22 -2 -36 40 -44 119 -54 130 -56 55 -1 -27 -3
-59 -5 -73 -4 -22 -4 -340 0 -464 l1 -50 52 1 c43 0 53 -3 63 -23 7 -12 21
-25 31 -27 13 -4 19 -14 19 -36 0 -17 5 -31 10 -31 6 0 10 5 10 10 0 6 5 10
10 10 6 0 10 -12 10 -27 0 -37 14 -19 34 44 24 71 45 83 96 52 14 -8 34 -19
45 -25 23 -13 39 -93 32 -161 -3 -24 -1 -40 4 -37 5 3 9 -6 9 -20 0 -14 -5
-26 -11 -26 -6 0 -9 -6 -6 -14 3 -7 -1 -26 -9 -42 -13 -25 -13 -33 7 -81 12
-30 20 -55 18 -57 -2 -2 -24 -17 -48 -35 -24 -17 -40 -31 -35 -31 5 0 2 -5 -6
-11 -11 -8 -6 -9 20 -4 35 6 35 6 10 -9 -14 -9 -35 -15 -47 -16 -13 0 -23 -4
-23 -10 0 -5 16 -10 35 -10 41 0 43 -5 13 -31 -20 -16 -20 -18 -5 -19 23 0 22
-36 -2 -84 -11 -21 -17 -45 -14 -54 3 -10 1 -13 -4 -7 -10 13 -33 18 -33 7 0
-14 24 -32 42 -32 26 0 33 -26 14 -55 -9 -13 -16 -40 -16 -60 0 -22 -4 -34
-10 -30 -6 4 -10 -5 -10 -20 0 -24 3 -26 30 -20 l31 7 -23 -24 c-13 -13 -36
-30 -52 -38 l-28 -15 43 -10 c38 -10 46 -8 64 10 20 20 21 23 24 50 0 8 7 15
14 15 7 0 36 23 64 50 l52 50 -28 63 c-33 72 -71 229 -71 290 0 23 7 61 15 85
11 32 14 64 9 121 -9 104 1 167 26 174 24 6 26 -6 5 -23 -22 -18 -18 -40 7
-40 19 0 20 -2 6 -17 -20 -24 -22 -121 -4 -165 11 -25 12 -38 4 -46 -15 -15
-1 -32 28 -32 l25 0 -23 -31 c-15 -20 -19 -32 -12 -37 11 -7 30 -113 25 -139
-1 -6 3 -14 9 -18 5 -3 10 -11 10 -16 0 -6 -5 -7 -10 -4 -17 11 -11 -11 11
-39 28 -36 35 -33 42 15 8 63 27 74 27 16 0 -26 -4 -47 -9 -47 -15 0 -42 -63
-32 -73 11 -11 3 -37 -11 -37 -5 0 -6 6 -2 13 4 7 3 9 -2 4 -5 -5 -9 -12 -9
-15 0 -4 -4 -13 -9 -21 -6 -9 -5 -12 1 -8 7 4 10 -5 8 -24 -2 -23 1 -29 12
-25 8 4 11 1 8 -5 -4 -6 -13 -8 -20 -5 -8 3 -19 -2 -25 -10 -22 -26 24 -16 66
14 21 15 51 33 67 39 22 10 27 19 27 47 0 19 5 38 10 41 20 12 9 25 -20 25
-27 0 -30 2 -20 19 14 27 13 29 -12 34 -21 4 -21 4 -2 6 12 0 26 13 36 34 13
28 13 37 1 72 -18 50 -12 136 17 260 12 50 28 126 35 170 39 234 80 402 113
455 9 14 16 27 16 30 1 3 19 14 41 24 22 11 43 25 47 30 4 6 8 1 8 -11 0 -13
5 -23 10 -23 6 0 10 -8 10 -17 0 -15 2 -16 10 -3 18 29 18 3 -1 -65 -22 -79
-23 -89 -10 -80 12 7 25 -31 15 -46 -4 -8 -3 -9 4 -5 7 4 12 17 12 30 0 27 25
64 37 53 4 -5 0 -15 -10 -22 -18 -13 -17 -14 2 -20 12 -3 21 -13 21 -21 0 -8
4 -14 8 -14 19 0 29 -45 19 -89 -7 -31 -6 -46 1 -49 6 -2 8 -10 6 -17 -3 -8 7
-26 23 -41 l28 -26 3 51 c2 28 7 51 12 51 26 0 51 94 31 116 -15 15 -24 91
-11 99 13 8 44 -61 34 -77 -4 -6 -3 -9 2 -5 5 3 8 -90 6 -225 -2 -162 0 -234
8 -242 9 -8 11 15 10 89 -1 109 8 195 21 195 10 0 41 104 41 137 1 16 13 30
44 48 24 14 70 47 101 74 63 52 111 71 124 49 7 -10 9 -10 9 0 0 6 9 12 20 12
11 0 20 -5 20 -12 0 -9 3 -9 12 0 15 15 32 16 23 2 -3 -5 -1 -10 4 -10 6 0 11
-8 12 -17 0 -16 1 -16 7 -1 6 15 9 15 29 -2 51 -41 54 -93 12 -225 -24 -74
-46 -120 -96 -194 -89 -130 -93 -140 -86 -239 5 -72 4 -82 -11 -82 -21 0 -20
-17 5 -70 36 -74 52 -139 38 -156 -6 -8 -8 -14 -3 -14 4 0 3 -5 -4 -12 -7 -7
-41 -12 -80 -13 -61 0 -69 2 -91 28 -13 16 -42 36 -65 45 -38 15 -39 17 -17
22 14 3 26 11 29 18 5 15 -29 28 -93 34 -27 3 -44 3 -37 1 6 -3 12 -11 12 -18
0 -17 -88 -37 -110 -25 -31 16 -70 -63 -113 -231 -7 -25 -20 -56 -30 -70 -17
-24 -17 -24 -11 24 7 54 -2 62 -18 15 -10 -29 -12 -30 -25 -13 -9 13 -13 15
-13 5 0 -22 -18 1 -23 30 -4 21 -4 20 -6 -7 -1 -38 -17 -44 -24 -10 -4 19 -4
18 -6 -6 -1 -19 -8 -30 -23 -36 l-23 -8 23 -7 c12 -4 22 -15 22 -26 0 -30 -21
-35 -41 -9 -18 24 -18 24 -12 1 7 -27 3 -27 -49 -1 l-42 21 18 -27 c10 -15 15
-29 12 -33 -12 -11 -56 42 -62 75 -3 18 -10 33 -15 33 -5 0 -9 7 -9 15 0 8 7
15 15 15 8 0 15 7 15 15 0 13 -3 13 -20 3 -16 -10 -19 -22 -17 -60 1 -27 -1
-48 -5 -48 -4 0 -8 -4 -8 -9 0 -5 6 -8 13 -7 6 0 12 -3 12 -9 0 -5 -5 -9 -12
-9 -6 1 -9 -5 -6 -12 3 -8 11 -14 19 -14 8 0 14 -8 14 -17 0 -13 -3 -14 -12
-5 -16 16 -25 15 -25 -3 0 -8 4 -12 8 -9 4 2 10 0 14 -6 3 -5 17 -10 31 -10
13 0 24 -3 24 -7 0 -10 -78 -7 -105 3 l-20 7 20 -24 c11 -13 26 -29 34 -35 12
-9 11 -12 -3 -17 -10 -4 -15 -11 -12 -16 3 -5 -3 -11 -14 -14 -11 -3 -20 -11
-19 -19 0 -10 2 -10 6 0 2 6 9 12 14 12 4 0 5 -7 2 -17 -5 -12 -3 -14 7 -8 9
5 11 4 6 -3 -10 -17 -34 -15 -44 5 -7 11 -16 14 -28 9 -18 -7 -17 -9 6 -22
l25 -15 -25 7 c-14 4 -28 11 -31 16 -3 5 -9 0 -12 -12 -4 -14 -11 -21 -20 -17
-19 7 -34 -4 -46 -33 -7 -18 -10 -20 -10 -7 -1 23 -18 22 -26 -3 -3 -11 -11
-20 -16 -20 -6 0 -7 4 -4 10 4 6 -5 10 -19 10 -20 0 -26 5 -26 21 0 11 -4 17
-10 14 -6 -3 -10 5 -10 19 0 29 -15 43 -23 22 -3 -8 -1 -16 6 -19 6 -2 3 -6
-7 -10 -11 -4 -15 -3 -10 4 4 8 -1 9 -17 5 -22 -7 -23 -6 -6 7 16 13 16 15 1
21 -25 10 -41 7 -41 -6 0 -7 -4 -21 -8 -31 -5 -11 -3 -17 6 -18 8 0 5 -4 -6
-9 -18 -8 -18 -9 -2 -9 10 -1 20 5 23 13 7 18 71 17 71 -1 0 -7 -13 -15 -29
-19 -27 -5 -28 -7 -11 -19 10 -7 22 -11 27 -8 5 4 6 1 2 -5 -3 -5 0 -13 6 -15
10 -4 10 -6 0 -6 -7 -1 -10 -5 -7 -11 3 -5 2 -10 -2 -10 -5 0 -14 12 -20 27
l-10 28 -12 -28 c-9 -23 -15 -27 -34 -21 -12 4 -28 7 -34 7 -16 0 -16 2 1 20
9 8 11 19 6 27 -6 10 -13 3 -24 -25 -24 -56 -21 -75 12 -76 15 0 21 -3 15 -6
-26 -10 -11 -22 60 -49 39 -15 77 -32 84 -37 8 -6 21 1 39 20 l27 28 -6 -25
c-4 -14 -7 -29 -7 -33 0 -5 -5 -5 -10 -2 -17 10 -11 -22 7 -36 28 -24 429 -25
573 -3 90 14 181 18 415 19 246 1 315 5 380 19 44 10 90 22 103 27 13 5 43 9
67 9 24 0 47 5 50 10 4 6 10 8 15 5 5 -3 60 -7 122 -9 70 -2 105 0 93 6 -16 7
-15 7 5 2 43 -10 572 -12 558 -1 -9 6 -6 6 7 1 11 -4 121 -8 245 -9 146 -1
235 -6 253 -13 35 -15 159 -16 137 -2 -8 5 -43 10 -77 10 l-63 0 0 30 0 30
105 0 c86 0 106 3 113 16 5 9 14 14 21 10 18 -11 13 -24 -11 -28 -14 -2 -24
-13 -29 -30 l-7 -27 57 5 c170 16 229 19 224 10 -4 -5 6 -5 23 0 31 9 40 9
272 5 151 -3 181 1 152 19 -10 6 -1 9 26 8 63 -1 125 12 118 24 -5 8 7 9 37 3
24 -4 121 -8 214 -10 94 -2 204 -6 245 -9 144 -12 556 -15 633 -5 138 17 231
43 242 67 15 33 95 45 300 47 113 1 191 6 209 13 25 11 28 11 22 -5 -4 -10 -4
-15 -1 -11 4 3 22 0 40 -8 37 -15 106 -17 170 -5 34 6 26 9 -63 15 l-102 8 6
34 c3 19 2 34 -2 34 -14 0 -30 -14 -38 -30 -3 -8 -4 -1 -1 17 4 31 -14 60 -23
35 -2 -7 -11 -12 -20 -12 -14 0 -15 -2 -3 -9 12 -8 12 -13 -3 -37 l-18 -27
-92 7 c-91 6 -122 20 -110 50 3 8 -25 16 -87 24 -80 11 -94 11 -109 -3 -9 -8
-21 -15 -27 -15 -12 0 -28 68 -19 78 3 3 6 0 6 -7 0 -15 137 -8 153 8 6 6 18
11 26 10 11 0 10 -3 -4 -9 -15 -6 -7 -9 30 -9 44 -1 56 4 100 39 28 22 69 50
92 62 38 19 45 20 70 8 15 -8 42 -14 58 -14 23 -1 31 -6 33 -23 2 -13 7 -23
11 -23 13 0 51 37 51 50 0 7 6 10 14 7 8 -3 16 -2 18 3 2 4 39 4 83 0 44 -5
100 -9 124 -9 42 -1 43 0 36 26 -15 61 -15 100 2 145 17 48 17 48 63 48 44 0
46 -1 64 -42 14 -34 16 -49 7 -78 -15 -52 -20 -105 -12 -119 12 -19 77 -31
171 -31 94 0 132 12 90 29 -24 9 -24 10 -2 10 18 1 22 7 22 31 0 24 -8 36 -40
58 -37 25 -42 35 -44 90 -1 9 -16 28 -35 42 l-34 25 29 6 c27 5 27 6 -19 19
-26 7 -52 21 -58 31 -5 11 -16 19 -24 19 -16 0 -55 51 -55 72 0 10 3 9 10 -2
5 -8 10 -12 10 -8 0 4 12 -4 26 -17 15 -14 38 -25 51 -25 23 0 23 1 8 30 -8
16 -15 41 -15 56 0 23 3 25 25 20 23 -6 24 -5 13 26 -6 18 -15 38 -20 45 -14
18 0 35 23 28 11 -4 19 -2 19 4 0 11 -13 15 -36 12 -6 -1 -17 6 -24 14 -9 10
-9 15 -1 15 6 0 11 -4 11 -10 0 -5 5 -10 10 -10 6 0 10 9 10 20 0 11 5 20 10
20 13 0 13 33 0 46 -11 11 -17 35 -26 104 -4 31 -14 52 -33 68 l-26 24 53 -6
53 -5 -23 20 -23 20 40 -5 40 -6 -29 19 c-16 11 -23 20 -16 23 7 2 -6 10 -29
18 -22 7 -41 17 -41 21 0 5 -12 15 -27 23 -18 10 -22 15 -12 16 9 0 22 -7 29
-15 7 -8 21 -15 32 -15 15 0 17 4 10 18 -9 16 -29 149 -31 202 -1 14 -4 73 -7
132 l-6 107 48 51 c30 32 44 54 37 58 -6 4 32 7 85 7 93 0 97 1 95 21 -1 12 8
83 21 158 22 124 22 141 10 183 -21 68 -18 110 6 116 19 5 19 8 -14 64 -30 52
-34 69 -41 161 l-7 104 26 -17 c14 -9 41 -21 61 -25 30 -7 41 -4 74 20 64 47
84 83 89 164 3 57 0 80 -13 107 -14 27 -19 61 -20 161 -2 118 -4 130 -27 165
-20 30 -23 42 -14 56 14 22 1 44 -45 74 -44 29 -48 33 -83 78 -38 50 -133 110
-150 96 -7 -6 -16 -7 -21 -3 -7 7 -2 -45 11 -115 8 -40 -3 -86 -17 -77 -6 3
-24 -10 -40 -29 -16 -20 -46 -41 -67 -48 -20 -6 -43 -16 -50 -22 -11 -8 -19
-5 -33 13 -10 14 -19 31 -19 38 0 6 -4 12 -10 12 -14 0 -51 82 -45 101 3 9 -1
19 -8 22 -8 3 -17 22 -20 42 -3 21 -14 46 -23 56 -15 16 -19 17 -44 4 -15 -8
-30 -11 -34 -8 -3 4 -6 1 -6 -5 0 -7 -7 -12 -15 -12 -8 0 -15 -4 -15 -8 0 -11
-100 -69 -133 -76 -16 -4 -32 -17 -39 -31 -14 -31 -26 -32 -30 -3 -2 12 -13
27 -25 34 -15 7 -19 14 -12 21 12 12 1 43 -16 43 -8 0 -17 9 -20 20 -6 20 -46
37 -63 26 -15 -9 -72 14 -72 29 0 22 -15 26 -51 14 -42 -14 -70 -39 -51 -46
20 -8 14 -28 -18 -56 -22 -20 -39 -26 -72 -25 -66 1 -114 -24 -133 -68 -19
-45 -19 -44 5 -39 11 2 20 -1 20 -6 0 -6 5 -7 10 -4 13 8 13 -7 0 -41 -9 -24
-9 -25 5 -14 13 11 14 10 8 -6 -4 -10 -13 -25 -20 -32 -11 -11 -13 -10 -13 5
0 10 -4 14 -8 8 -4 -6 -19 -16 -34 -24 -22 -11 -27 -21 -30 -62 -1 -27 1 -64
7 -82 9 -30 9 -29 15 29 8 90 42 112 198 130 48 5 62 4 62 -6 0 -8 -3 -11 -6
-7 -7 6 -64 -19 -64 -29 0 -7 36 4 72 21 26 12 29 11 50 -15 13 -15 31 -42 41
-61 13 -24 21 -29 26 -20 5 7 6 22 4 32 -3 10 -1 19 5 19 20 0 25 -60 7 -80
-15 -17 -15 -20 0 -44 12 -18 26 -26 45 -26 15 0 40 -4 56 -9 64 -21 84 -22
84 -6 0 8 5 15 11 15 6 0 9 -8 6 -19 -4 -15 7 -22 62 -40 36 -11 82 -24 101
-28 19 -3 43 -15 54 -25 11 -10 25 -18 30 -18 16 0 201 -191 203 -209 3 -26
29 -93 39 -100 6 -3 15 -24 22 -46 60 -202 59 -214 -26 -308 -47 -52 -46 -44
-25 -148 5 -24 3 -26 -20 -22 -53 10 -388 386 -370 416 4 6 1 7 -7 2 -10 -6
-12 -4 -7 9 4 9 2 22 -3 29 -6 7 -17 21 -25 32 -13 18 -14 17 -6 -12 18 -64
74 -152 149 -236 42 -46 97 -110 122 -141 50 -63 106 -106 136 -106 34 0 47
-62 29 -141 -21 -95 -82 -288 -95 -304 -9 -11 -8 -18 4 -30 9 -9 16 -21 16
-27 0 -19 -23 -2 -59 43 -32 39 -33 41 -6 19 28 -25 28 -25 -6 24 -19 28 -61
77 -94 110 -32 34 -51 54 -40 46 17 -14 18 -14 6 8 -7 12 -16 20 -21 17 -5 -3
-12 0 -16 6 -4 8 -3 9 4 5 7 -4 12 -4 12 -1 0 17 -123 214 -130 210 -5 -3 -12
0 -16 6 -5 8 -3 9 6 4 10 -6 12 -4 7 9 -4 10 -7 20 -7 22 0 3 -5 2 -12 -2 -7
-4 -8 -3 -4 4 4 7 -5 36 -19 64 -27 54 -54 89 -42 55 4 -11 3 -16 -4 -12 -5 4
-7 15 -4 25 3 11 -18 64 -54 136 -33 66 -60 115 -61 111 0 -5 5 -17 10 -28 6
-10 8 -19 5 -19 -6 0 -45 87 -45 98 1 4 7 -4 15 -18 19 -33 19 -21 0 21 -8 19
-15 27 -15 19 -1 -8 -10 8 -20 36 -16 45 -17 68 -10 180 8 133 6 163 -5 100
-9 -43 -19 -52 -75 -65 -48 -11 -103 5 -129 37 -33 43 19 -242 60 -318 21 -41
23 -57 24 -195 0 -112 -4 -156 -14 -175 -9 -16 -16 -20 -19 -12 -2 7 2 19 8
27 10 12 9 15 -3 15 -22 0 -32 20 -16 31 10 6 11 9 2 9 -9 0 -13 16 -13 44 0
38 -2 43 -19 39 -13 -3 -17 -12 -15 -26 2 -12 2 -16 -2 -9 -10 21 -24 2 -19
-26 4 -23 4 -24 -4 -7 -7 14 -10 16 -11 5 -2 -21 -28 72 -43 155 l-13 70 -12
-34 c-20 -56 -46 -3 -58 119 -7 71 -11 79 -32 58 -9 -9 -12 -8 -12 7 0 10 -3
15 -6 12 -4 -4 -20 14 -35 38 -31 49 -45 58 -35 23 4 -13 8 -35 9 -50 3 -30
-5 -28 -58 15 -29 24 -29 25 -31 138 -2 101 -6 124 -34 199 -32 86 -33 96 -14
204 7 36 6 38 -13 28 -11 -6 -24 -8 -28 -4 -5 4 -5 2 -1 -5 10 -17 -24 -53
-43 -45 -13 5 -13 3 2 -12 22 -23 22 -25 -5 -19 -19 5 -21 3 -10 -8 6 -7 12
-18 12 -24 0 -5 -5 -3 -11 5 -9 12 -10 12 -5 -3 3 -10 6 -23 6 -29 0 -6 6 -6
15 2 17 14 20 3 6 -19 -11 -17 4 -51 22 -51 20 -1 65 -43 75 -71 7 -17 6 -43
-2 -80 l-13 -54 -7 45 c-6 37 -9 42 -17 28 -19 -35 -99 -11 -99 29 0 6 -9 13
-20 16 -25 7 -25 18 0 47 12 13 18 30 16 37 -3 7 -1 13 5 13 7 0 9 -13 7 -31
l-5 -31 18 23 c24 31 23 36 -2 44 -11 4 -18 12 -16 19 3 7 -9 21 -26 31 -33
19 -72 54 -66 59 2 2 28 16 56 32 48 26 53 32 53 64 0 46 10 80 22 80 6 0 8
-17 4 -45 l-7 -45 28 12 c15 7 31 17 35 23 13 18 8 57 -8 70 -11 7 -18 31 -21
66 -4 52 -3 53 11 29 l15 -25 1 36 c0 21 -8 47 -19 61 -11 13 -22 40 -26 59
-7 38 -1 45 79 103 23 17 27 25 22 51 -4 18 0 50 8 73 18 49 72 380 64 388
-12 11 -115 17 -122 6z m-3411 -702 c7 0 16 6 19 13 3 6 3 2 1 -9 -4 -14 -1
-22 7 -21 31 1 46 -4 51 -17 10 -24 -15 -84 -38 -94 -12 -6 -25 -20 -28 -31
-3 -13 -1 -19 5 -15 12 8 1 -76 -12 -90 -5 -5 -6 -16 -3 -25 4 -14 3 -14 -6
-1 -16 23 -26 2 -14 -30 19 -49 -14 -24 -39 30 -12 27 -25 47 -29 45 -3 -3
-13 3 -22 13 -19 22 -26 94 -9 100 6 2 12 -5 13 -15 1 -31 20 27 24 72 2 22 4
43 4 48 2 14 21 7 21 -9 0 -28 18 -5 26 33 4 23 9 31 11 21 3 -10 11 -18 18
-18z m4515 -65 c16 -17 24 -38 24 -64 1 -22 8 -47 18 -58 15 -17 16 -22 3 -47
-8 -15 -14 -30 -13 -34 1 -4 -4 -18 -12 -32 -9 -16 -13 -49 -11 -96 l2 -71
-30 -1 c-29 -1 -29 0 -16 31 14 35 39 147 33 152 -1 2 -25 6 -53 11 -46 6 -49
6 -36 -9 7 -10 20 -17 27 -17 8 0 14 -11 14 -26 0 -27 0 -27 -50 -12 -8 3 -12
3 -7 1 4 -3 7 -9 7 -15 0 -7 -5 -6 -14 1 -32 27 -36 202 -5 262 17 34 23 38
44 33 15 -4 25 -2 25 5 0 19 26 12 50 -14z m-5212 -55 c40 -20 72 -61 72 -95
0 -10 -10 -15 -31 -15 -26 0 -30 -3 -26 -20 3 -10 0 -21 -6 -23 -22 -7 6 -27
38 -27 29 0 36 -4 41 -26 4 -14 1 -38 -6 -52 -6 -15 -11 -28 -11 -30 6 -12
-35 -62 -63 -77 -28 -15 -42 -17 -72 -9 -30 7 -41 17 -60 54 -32 64 -42 102
-36 139 4 30 6 32 46 29 56 -4 62 16 6 22 -29 3 -40 8 -32 13 7 5 32 6 55 2
39 -5 41 -5 23 10 -11 8 -32 15 -48 15 -15 0 -28 4 -28 10 0 22 35 79 54 88
30 15 37 14 84 -8z m3289 -24 c37 -40 39 -44 21 -55 -28 -18 -21 -31 9 -16 35
18 45 9 14 -14 -27 -21 -17 -32 23 -25 29 5 34 -2 40 -53 4 -42 -6 -56 -42
-57 -17 0 -28 -3 -26 -5 2 -2 -2 -11 -9 -19 -10 -13 -9 -15 11 -10 18 5 21 4
12 -7 -6 -7 -7 -16 -2 -19 5 -3 14 6 20 19 18 40 37 31 37 -17 0 -37 -3 -43
-31 -54 -26 -11 -36 -10 -74 7 -23 11 -45 18 -47 16 -9 -9 18 -57 37 -67 38
-20 59 -47 53 -69 -7 -27 7 -27 41 0 18 14 26 28 23 40 -3 11 0 19 5 19 6 0 5
7 -3 16 -11 14 -10 15 11 12 13 -1 25 -9 28 -17 3 -8 0 -11 -7 -7 -7 5 -11 -2
-11 -17 0 -24 24 -38 70 -41 8 -1 16 -11 16 -24 1 -21 42 -76 72 -95 21 -14
13 -26 -18 -25 -17 1 -34 -2 -38 -6 -4 -4 12 -6 35 -5 29 2 48 -2 62 -15 11
-10 25 -15 32 -10 7 4 10 3 6 -3 -4 -6 0 -24 8 -39 25 -47 -4 -123 -68 -182
-23 -22 -24 -26 -11 -50 18 -36 20 -153 2 -131 -7 9 -26 23 -41 33 -15 9 -41
39 -58 66 -17 28 -35 50 -40 50 -19 0 -83 67 -100 105 -15 32 -19 66 -19 165
l-1 125 -24 -45 -24 -45 5 35 c3 19 7 43 9 52 1 9 -2 19 -9 22 -7 3 -5 9 7 16
23 15 22 27 -4 41 -19 9 -20 8 -14 -10 5 -18 3 -20 -29 -16 -20 3 -36 1 -36
-5 0 -6 9 -10 19 -10 13 0 19 -6 18 -19 -1 -14 -10 -20 -33 -23 -31 -4 -33 -2
-39 37 -7 45 -18 69 -55 111 -39 46 -47 47 -47 6 -1 -105 -12 -195 -24 -203
-10 -6 -16 -1 -20 19 -3 15 -2 32 2 37 13 18 -9 55 -33 55 -13 0 -30 5 -38 10
-11 6 -2 9 29 7 43 -2 45 -1 53 33 5 19 9 96 9 170 1 116 3 141 22 179 11 25
23 39 25 32 4 -11 6 -11 13 0 7 11 9 10 9 -5 0 -12 5 -16 16 -12 14 5 15 -5 9
-96 -4 -57 -7 -113 -7 -125 0 -13 -4 -20 -9 -17 -5 3 -9 14 -9 24 0 10 -5 20
-11 22 -6 2 -14 19 -19 38 -7 31 -8 28 -9 -27 l-1 -61 58 -46 c66 -53 75 -45
41 35 -17 38 -20 54 -11 57 7 2 12 10 12 18 0 7 14 20 30 29 17 9 30 18 30 22
0 3 -13 3 -30 0 l-30 -6 0 63 c0 55 4 69 26 95 14 17 29 31 33 31 4 0 25 -20
48 -44z m2383 -5 c0 -22 9 -60 20 -86 26 -61 25 -96 -3 -123 -19 -18 -28 -20
-55 -13 -24 7 -32 6 -32 -3 0 -18 -51 -14 -63 5 -6 9 -7 39 -3 71 6 44 12 58
32 68 18 10 24 22 24 47 0 23 6 36 18 40 9 4 21 12 25 20 17 28 37 14 37 -26z
m-6500 -351 c9 -16 15 -18 30 -10 10 5 23 10 29 10 14 0 28 -61 36 -157 l6
-83 -41 0 c-29 0 -40 4 -40 15 0 9 -16 63 -35 122 -19 59 -32 110 -29 115 9
15 33 8 44 -12z m6461 -217 c18 -74 19 -209 2 -206 -9 2 -11 -20 -7 -91 4 -60
2 -96 -4 -100 -7 -4 -9 7 -7 31 3 21 2 29 -1 19 -5 -15 -8 -16 -16 -5 -7 10
-8 5 -4 -16 5 -20 4 -25 -3 -16 -7 11 -10 10 -12 -4 -2 -10 -3 31 -3 91 1 60
6 130 12 157 5 26 6 47 1 47 -5 0 -9 10 -8 23 0 21 1 21 10 2 7 -15 8 -12 3
13 -3 20 -1 32 5 32 6 0 11 10 10 23 0 21 -1 21 -10 2 -8 -17 -9 -17 -4 5 2
14 5 31 5 38 0 32 18 6 31 -45z m-4057 -13 c55 -21 118 -100 79 -100 -10 0
-12 6 -8 19 4 14 0 21 -14 26 -26 8 -91 -22 -92 -44 -2 -30 3 -56 13 -68 12
-15 32 -18 24 -4 -3 5 6 9 20 9 33 0 72 20 78 41 3 9 3 -4 0 -29 -6 -52 -16
-61 -58 -49 -38 11 -38 11 -32 0 7 -10 -46 -31 -80 -31 -12 0 -24 3 -26 8 -1
4 -15 -5 -29 -19 l-25 -26 23 -27 c13 -15 23 -22 23 -17 0 6 9 11 19 11 13 0
18 6 16 18 -1 9 -8 16 -13 15 -6 -2 -9 4 -6 12 4 8 17 15 30 15 25 0 33 -15
12 -23 -7 -3 6 -6 30 -6 23 -1 42 -3 42 -6 0 -11 -35 -45 -47 -45 -7 0 -13 -4
-13 -10 0 -5 14 -10 31 -10 17 0 28 4 24 10 -3 6 1 7 10 4 11 -5 14 -2 9 12
-5 15 -4 16 4 5 13 -18 -2 -50 -26 -57 -9 -3 -26 -10 -37 -14 -11 -5 -26 -10
-32 -12 -10 -2 -9 -9 2 -30 7 -16 9 -28 4 -28 -5 0 -12 6 -15 14 -3 8 -13 12
-25 9 -24 -7 -49 13 -49 40 0 20 0 20 24 -2 17 -16 26 -19 31 -10 8 11 -48 69
-66 69 -15 0 -47 74 -44 103 2 16 12 38 22 49 13 15 15 22 6 25 -16 6 -18 89
-3 98 6 3 10 12 10 18 0 7 -5 4 -11 -5 -10 -18 -29 -24 -29 -10 0 24 30 44 70
48 24 2 45 5 46 7 8 7 56 6 78 -3z m2330 -180 c-5 -57 -4 -73 8 -83 8 -7 21
-37 28 -67 10 -47 10 -64 -3 -106 -13 -43 -13 -53 -1 -69 8 -10 14 -29 14 -42
0 -16 4 -21 15 -17 19 8 20 -35 3 -83 -23 -65 -59 -52 -98 33 -10 23 -23 45
-28 48 -19 12 -66 101 -73 141 -6 33 -4 44 13 62 15 16 19 30 15 50 -3 15 -11
52 -17 82 -12 59 -6 105 13 98 6 -2 15 -21 19 -43 3 -21 13 -54 21 -72 l14
-34 6 49 c10 76 26 123 43 123 13 0 14 -11 8 -70z m-1384 -78 c0 -5 -9 -35
-20 -67 -23 -66 -20 -80 7 -38 10 15 23 34 30 41 6 6 14 21 18 31 3 11 13 22
21 25 26 10 26 -20 0 -66 -30 -54 -32 -92 -3 -77 10 6 21 17 24 25 5 13 33 20
33 8 0 -3 -13 -23 -29 -43 -17 -21 -35 -49 -42 -64 -8 -18 -15 -23 -20 -16
-10 16 -39 4 -39 -17 0 -10 5 -14 15 -10 8 3 15 1 15 -5 0 -13 -71 -78 -85
-79 -19 0 -55 31 -70 59 -12 24 -12 34 1 77 8 27 20 54 28 59 7 6 28 39 46 75
18 36 37 71 42 78 12 14 28 16 28 4z m1791 -96 c9 -15 8 -18 -3 -14 -10 4 -14
-5 -14 -36 -3 -116 -8 -146 -26 -152 -10 -3 -16 -10 -13 -15 3 -5 0 -6 -7 -4
-7 3 -28 33 -46 68 l-34 62 36 30 c34 29 65 93 67 139 0 14 5 7 15 -19 7 -22
19 -49 25 -59z m-3051 2 c0 -5 7 -8 15 -4 8 3 15 3 15 0 0 -10 -28 -33 -33
-28 -3 3 -4 -13 -3 -35 2 -23 -1 -44 -5 -47 -16 -10 -42 -76 -41 -105 0 -16
-1 -29 -2 -29 -2 0 -20 24 -40 53 -43 63 -42 84 7 158 24 36 36 46 59 47 15 0
28 -4 28 -10z m-1513 -75 c-8 -15 -17 -45 -20 -65 l-6 -37 29 32 c28 30 29 31
30 10 0 -12 -8 -27 -18 -32 -20 -11 -44 -75 -35 -97 4 -11 8 -10 21 3 10 9 17
19 18 22 1 6 10 33 25 69 9 24 45 42 84 42 16 0 48 -22 94 -65 66 -63 70 -69
85 -138 15 -66 15 -77 1 -110 -22 -53 -5 -163 31 -192 38 -31 19 -81 -50 -134
-58 -45 -76 -50 -118 -33 -31 13 -62 72 -44 84 6 4 10 34 10 70 -1 57 -4 64
-30 83 -74 53 -106 91 -121 145 -9 30 -16 65 -15 77 0 13 -4 20 -9 17 -5 -3
-9 -15 -9 -28 0 -12 -11 -32 -25 -44 -14 -12 -28 -36 -32 -52 -5 -30 -23 -52
-23 -30 0 7 -6 5 -15 -4 -8 -8 -15 -21 -15 -28 0 -8 -14 -25 -31 -37 -19 -14
-27 -26 -20 -30 7 -5 3 -13 -10 -25 -20 -17 -21 -17 -14 5 5 15 4 19 -5 14 -9
-6 -9 -3 -1 14 7 12 21 27 31 34 11 6 20 18 20 25 0 7 7 23 16 37 16 25 27
118 12 109 -14 -9 -9 14 12 49 12 19 30 37 40 40 17 4 20 13 18 59 -2 46 2 59
32 103 49 73 87 98 57 38z m2243 -85 c0 -19 2 -20 10 -8 13 20 13 -1 -1 -37
-8 -23 -8 -26 2 -15 18 17 30 15 22 -3 -3 -10 0 -15 8 -13 9 2 13 -4 11 -17
-7 -40 -51 -41 -53 -1 0 11 -3 15 -6 9 -2 -7 -10 -13 -16 -13 -17 -1 -47 -70
-47 -108 0 -18 -4 -33 -10 -33 -5 -1 -14 -3 -20 -4 -5 -1 -14 -3 -20 -4 -5 0
-10 -13 -10 -28 0 -22 -2 -25 -10 -13 -5 8 -10 10 -10 4 0 -7 -6 -14 -14 -17
-10 -4 -9 7 6 46 11 29 33 87 48 129 32 88 60 139 72 132 4 -3 8 0 8 5 0 6 7
11 15 11 9 0 15 -9 15 -22z m223 -141 c32 -3 70 -13 84 -22 25 -16 25 -20 21
-100 -4 -77 -7 -88 -43 -142 -37 -55 -39 -62 -40 -140 0 -73 1 -80 16 -73 31
17 39 -16 14 -64 -8 -15 -15 -41 -15 -56 0 -34 -27 -48 -46 -23 -7 10 -14 23
-14 29 0 5 -11 25 -24 43 -21 29 -24 42 -22 117 0 46 -1 84 -5 84 -3 0 -33 25
-67 56 -54 49 -64 63 -82 123 -28 97 -26 171 6 171 8 0 11 -6 7 -17 -5 -13 -3
-15 13 -9 10 5 34 12 53 16 18 5 38 13 44 19 6 6 17 7 26 2 9 -5 42 -11 74
-14z m-1343 -57 c0 -5 11 -10 25 -10 14 0 25 3 25 8 0 4 44 7 98 7 111 0 128
-7 138 -61 3 -19 10 -37 15 -40 5 -3 6 8 3 24 -4 17 -1 32 5 36 10 7 16 -7 11
-29 -1 -5 7 -15 16 -22 15 -11 16 -13 2 -13 -9 0 -19 -11 -22 -25 -4 -14 -13
-25 -21 -25 -9 0 -15 -10 -15 -25 0 -14 -7 -42 -15 -62 -8 -19 -15 -51 -15
-70 0 -44 -45 -132 -72 -142 -12 -4 -39 -7 -60 -6 -21 1 -38 -1 -38 -5 0 -13
52 -30 95 -30 53 0 55 -19 4 -62 -23 -20 -26 -26 -11 -18 24 12 103 0 144 -22
26 -13 58 11 58 43 0 14 -16 60 -35 102 -19 42 -35 82 -35 91 0 34 21 24 44
-21 14 -26 29 -54 34 -61 16 -23 1 89 -18 141 -10 26 -15 47 -10 47 17 0 166
-73 215 -105 40 -27 64 -55 103 -118 27 -45 53 -93 57 -107 3 -14 12 -38 20
-55 7 -16 16 -52 19 -80 6 -41 14 -56 44 -82 20 -17 34 -35 30 -38 -3 -3 -27
-1 -52 6 -51 13 -60 10 -51 -13 4 -10 18 -15 37 -14 17 0 33 -4 35 -11 3 -7
-3 -10 -14 -7 -16 5 -18 -3 -17 -88 1 -51 0 -78 -3 -60 -4 31 -5 33 -18 15
-13 -17 -14 -16 -15 9 0 14 3 34 7 44 6 16 7 16 14 -2 6 -16 8 -15 8 8 1 14
-2 34 -5 43 -6 14 -8 14 -24 0 -16 -15 -18 -13 -25 17 -4 21 -9 28 -13 18 -3
-8 -13 -21 -24 -28 -27 -19 -22 -48 12 -74 17 -12 30 -30 30 -39 0 -28 11 -49
26 -49 17 0 18 -10 3 -30 -7 -10 -12 -11 -15 -3 -3 7 -14 2 -31 -13 -31 -29
-33 -29 -81 -4 -32 18 -37 18 -40 5 -6 -26 -24 -11 -39 30 -7 22 -29 56 -48
75 -19 20 -35 43 -35 52 0 9 -14 32 -30 50 -17 18 -33 43 -36 55 -5 17 -19 24
-80 38 -63 14 -78 21 -104 53 -16 20 -30 40 -30 44 0 4 -11 19 -25 34 -13 14
-22 30 -20 34 3 5 -2 15 -10 23 -11 12 -12 16 -2 20 15 5 -8 37 -27 37 -20 0
-73 63 -84 100 -6 19 -10 63 -9 97 0 50 -6 75 -29 122 -18 37 -35 60 -46 60
-22 1 -53 81 -42 113 7 22 8 22 23 -12 l16 -35 3 37 c3 30 8 38 32 47 21 7 28
15 24 25 -3 9 -1 16 5 16 6 0 11 -4 11 -10z m-2060 -92 c0 -42 3 -58 13 -58 5
0 7 -6 4 -14 -4 -10 8 -9 55 5 102 32 103 31 114 -91 5 -59 4 -66 -15 -78 -20
-12 -21 -11 -15 13 4 15 2 25 -5 25 -6 0 -11 -9 -11 -20 0 -13 -7 -20 -20 -20
-16 0 -20 7 -21 33 l-1 32 -7 -30 c-7 -35 -40 -47 -48 -17 -3 14 -11 18 -24
15 -16 -5 -19 0 -19 36 0 22 -5 41 -11 41 -5 0 -9 8 -8 18 2 24 -12 81 -22 88
-13 8 9 44 26 44 9 0 15 -9 15 -22z m4480 -716 c5 -40 16 -100 25 -133 8 -34
15 -80 15 -104 0 -37 -4 -47 -31 -66 -17 -12 -40 -36 -50 -53 -23 -37 -22 -43
-19 159 3 191 5 215 21 280 12 50 12 50 21 20 5 -16 13 -63 18 -103z m-868
-46 c40 -14 95 -36 122 -50 27 -14 56 -26 64 -26 11 0 12 -3 3 -14 -9 -10 -8
-16 4 -26 28 -23 9 -103 -22 -93 -7 3 -15 -7 -19 -21 -3 -14 -10 -26 -14 -26
-10 0 -20 26 -20 49 0 10 -9 26 -20 36 -11 10 -20 13 -20 7 0 -6 5 -14 10 -17
6 -3 10 -24 10 -47 0 -35 -2 -39 -15 -28 -8 7 -15 20 -15 30 0 19 -39 57 -89
86 -16 9 -36 29 -45 45 -21 35 -33 119 -18 119 6 0 44 -11 84 -24z m-214 -145
c54 -1 64 -4 70 -22 5 -11 12 -19 17 -17 6 2 11 -15 13 -37 1 -24 -1 -35 -6
-27 -6 9 -21 5 -63 -18 -30 -16 -69 -30 -89 -30 -19 0 -57 -7 -83 -15 -44 -13
-49 -13 -64 4 -9 11 -23 16 -34 14 -21 -6 -23 11 -11 81 6 36 11 41 52 55 25
9 66 15 90 15 25 -1 73 -2 108 -3z m2100 -113 c6 -40 11 -101 11 -134 l1 -61
-46 -7 c-26 -3 -66 -6 -90 -6 -38 0 -43 3 -48 28 -12 56 -10 163 3 172 8 4 11
12 8 17 -11 17 8 31 63 46 90 24 86 26 98 -55z m-3316 12 c-4 -21 -2 -23 12
-10 13 10 20 10 28 2 8 -8 7 -13 -5 -17 -9 -3 -25 -8 -34 -12 -10 -3 -24 -5
-30 -4 -7 1 -13 -3 -13 -9 0 -6 5 -8 10 -5 6 3 10 -1 10 -10 0 -9 5 -13 10
-10 6 3 11 1 12 -4 4 -29 2 -36 -9 -37 -7 -1 -16 -2 -19 -3 -3 0 7 -11 21 -24
l26 -22 -21 -25 c-12 -14 -17 -26 -11 -28 20 -7 11 -22 -13 -22 -66 0 -132
143 -96 211 13 24 79 59 105 56 15 -1 19 -8 17 -27z m-563 -420 c38 0 72 -40
44 -52 -13 -5 -10 -7 12 -7 23 -1 44 -14 84 -55 l53 -54 -33 3 c-19 2 -58 4
-87 4 -45 1 -57 5 -80 29 -15 15 -44 39 -64 52 -20 14 -42 35 -47 47 -9 21 -8
23 15 23 13 0 27 7 30 15 5 11 11 12 24 5 10 -6 32 -10 49 -10z m-551 -265
c-2 -41 2 -72 12 -89 11 -22 12 -31 2 -46 -11 -19 -9 -19 33 -13 25 3 45 2 45
-2 0 -4 -11 -29 -24 -56 l-25 -48 46 -3 c80 -5 62 -25 -29 -31 -46 -4 -110 -9
-143 -13 l-60 -6 -1 63 c0 35 -2 90 -5 122 -3 42 0 60 10 66 7 5 11 13 7 19
-3 5 5 13 18 16 17 4 23 11 20 24 -8 30 61 79 89 64 5 -2 7 -32 5 -67z m771
20 c5 -27 7 -54 5 -60 -5 -13 -183 -19 -241 -9 -32 6 -33 8 -33 53 l0 46 93 3
c50 2 108 7 127 11 19 4 36 7 37 6 2 -1 7 -23 12 -50z m41 -175 c0 -4 -3 -22
-6 -39 l-6 -31 -149 0 -149 0 0 34 0 34 68 7 c37 3 73 7 81 8 33 5 161 -5 161
-13z m637 -15 c5 -4 2 -5 -4 -1 -9 5 -13 1 -13 -12 0 -18 -12 -20 -132 -28
-219 -14 -272 -12 -276 9 -10 49 -6 50 213 45 113 -2 208 -8 212 -13z"/>
<path d="M627 4824 c-3 -3 -3 -12 0 -20 3 -8 0 -14 -6 -14 -6 0 -11 5 -11 10
0 6 -4 10 -10 10 -5 0 -10 -9 -10 -19 0 -11 -7 -27 -17 -36 -14 -14 -14 -18
-2 -26 8 -5 19 -9 24 -9 6 0 -1 -6 -15 -13 -18 -9 -25 -21 -26 -45 -1 -25 2
-30 12 -21 7 6 19 9 26 6 9 -4 7 -6 -3 -6 -9 -1 -19 -8 -23 -16 -3 -8 -15 -15
-27 -15 -11 0 -19 -3 -17 -7 3 -5 11 -23 19 -42 14 -33 15 -33 68 -29 32 3 59
11 65 20 6 8 16 13 22 11 26 -9 34 22 23 86 -12 68 -26 70 -31 6 -2 -27 -8
-40 -18 -40 -8 0 -16 -6 -16 -12 -3 -26 -5 -28 -18 -11 -11 15 -11 27 0 70 23
87 17 188 -9 162z"/>
<path d="M6776 4755 c4 -15 2 -25 -5 -25 -6 0 -11 5 -11 10 0 6 -13 10 -29 10
-17 0 -33 -4 -36 -10 -3 -5 -1 -10 4 -10 7 0 7 -7 -1 -20 -7 -11 -19 -20 -27
-20 -11 0 -11 -3 0 -16 11 -13 25 -15 80 -10 78 8 79 8 100 -88 l13 -60 9 34
c4 18 5 45 1 59 -4 14 -6 34 -5 43 4 33 -60 128 -86 128 -9 0 -11 -8 -7 -25z"/>
<path d="M2765 4656 l30 -14 -38 -7 c-21 -4 -58 -5 -83 -1 -34 4 -44 2 -44 -9
0 -18 60 -35 122 -35 53 0 49 3 78 -69 l21 -54 -23 8 c-53 16 -67 16 -92 0
-25 -17 -26 -19 -10 -36 21 -23 57 -25 74 -4 7 8 20 15 30 15 25 0 31 23 24
86 -5 39 -14 61 -30 77 -13 12 -24 28 -24 35 0 6 -6 12 -14 12 -8 0 -23 2 -33
5 -10 3 -4 -1 12 -9z"/>
<path d="M7624 4603 c-37 -5 -60 -26 -70 -68 -7 -28 -6 -29 12 -15 10 8 23 20
27 25 5 6 6 1 2 -10 -22 -61 -19 -65 53 -64 37 1 75 6 85 11 48 25 86 -19 88
-101 0 -20 4 -45 8 -56 7 -17 9 -15 16 15 4 19 8 67 9 105 1 59 -3 75 -22 100
-42 53 -106 71 -208 58z"/>
<path d="M1311 4593 c-13 -3 -33 -15 -43 -26 l-20 -22 5 23 c3 12 1 22 -4 22
-5 0 -9 -7 -9 -15 0 -8 -4 -15 -10 -15 -5 0 -19 -9 -30 -20 -18 -18 -20 -18
-41 -1 -21 17 -24 17 -67 -4 -41 -20 -44 -24 -48 -67 -3 -45 -3 -46 21 -34 14
6 25 16 25 21 0 21 41 45 75 45 19 0 35 -4 35 -9 0 -17 63 -34 116 -32 54 2
55 1 69 -33 8 -20 15 -46 15 -58 0 -26 16 -55 25 -46 3 3 8 41 12 85 6 94 -8
135 -60 171 -18 12 -35 21 -38 21 -2 -1 -15 -4 -28 -6z"/>
<path d="M216 4435 c-16 -9 -43 -30 -60 -47 l-30 -32 50 -13 c27 -7 83 -16
125 -19 l76 -7 -31 66 c-29 63 -33 67 -66 67 -19 0 -48 -7 -64 -15z"/>
<path d="M4040 4409 c0 -26 -3 -29 -31 -29 -36 0 -85 -32 -94 -61 -4 -11 -9
-18 -13 -15 -12 12 -42 -28 -43 -58 -1 -17 -3 -23 -6 -13 -8 30 -23 19 -23
-17 0 -19 -3 -42 -6 -50 -5 -12 -2 -15 10 -10 11 4 19 -1 24 -17 8 -22 9 -21
20 11 15 43 15 63 0 54 -6 -4 -4 3 5 17 9 13 17 33 17 44 0 23 26 28 143 29
65 1 70 -1 93 -29 15 -19 24 -43 24 -67 l0 -36 -30 14 c-41 21 -76 15 -72 -11
6 -37 30 -46 85 -32 26 7 27 6 27 -30 0 -51 15 -31 28 38 22 115 -6 179 -96
225 -57 29 -69 54 -27 54 36 0 31 17 -5 18 -27 1 -30 -3 -30 -29z"/>
<path d="M6495 4354 c13 -13 13 -19 3 -31 -10 -12 -13 -12 -18 -1 -3 7 -18 13
-35 14 -16 0 -37 4 -45 8 -12 5 -23 -9 -47 -54 -17 -33 -27 -57 -22 -54 5 3
16 19 25 36 15 29 18 30 65 24 27 -3 72 -9 100 -12 42 -5 54 -11 69 -36 9 -16
21 -52 24 -79 7 -55 17 -61 34 -24 24 52 11 126 -28 165 -22 22 -35 27 -24 9
4 -8 0 -8 -15 0 -11 7 -21 15 -21 20 0 10 -45 31 -66 31 -14 0 -13 -2 1 -16z"/>
<path d="M4681 4188 c-1 -15 -6 -39 -11 -54 -13 -33 -3 -94 16 -94 8 0 14 -4
14 -10 0 -5 -4 -10 -10 -10 -5 0 -7 -13 -4 -30 4 -17 0 -46 -10 -70 -9 -22
-13 -40 -9 -40 4 0 2 -5 -5 -12 -7 -7 -12 -19 -12 -27 0 -10 11 -5 33 16 34
33 135 70 202 75 38 3 40 5 42 38 1 19 0 29 -3 23 -3 -7 -16 -13 -29 -13 -13
0 -27 -4 -30 -10 -9 -15 -52 -12 -85 5 -38 20 -57 57 -80 158 -10 45 -19 70
-19 55z"/>
<path d="M691 3918 c-37 -46 -73 -146 -79 -215 -6 -76 12 -87 21 -13 8 65 37
170 48 170 4 0 20 11 34 26 14 14 30 22 37 18 9 -6 9 -9 0 -12 -7 -2 -12 -10
-12 -18 0 -8 -4 -14 -8 -14 -5 0 -9 -18 -9 -40 0 -24 -13 -68 -33 -110 -17
-39 -30 -73 -27 -76 9 -10 105 94 127 137 12 24 28 51 35 59 6 8 19 36 27 63
l15 47 -43 0 c-23 0 -46 -5 -50 -11 -5 -8 -10 -6 -16 5 -14 24 -40 18 -67 -16z"/>
<path d="M7364 3438 c-8 -34 -12 -129 -5 -122 2 2 10 -4 17 -14 7 -10 8 -19 3
-23 -12 -7 30 -109 46 -109 22 0 45 -36 45 -73 0 -25 6 -41 19 -49 10 -6 17
-18 14 -25 -3 -8 3 -13 16 -13 12 0 21 5 21 10 0 25 20 6 35 -34 10 -25 23
-47 31 -50 10 -4 11 0 4 20 -10 24 -9 25 12 10 31 -22 38 -20 38 8 0 14 5 28
10 31 22 14 8 23 -27 18 -21 -3 -35 -3 -31 1 10 11 -24 46 -44 46 -10 0 -20
10 -24 25 -3 14 -10 25 -15 25 -5 0 -7 10 -4 23 4 16 -1 31 -19 50 -25 27 -40
63 -35 83 7 24 -15 114 -33 140 -12 18 -18 21 -13 9 10 -32 35 -155 35 -176 0
-16 -4 -19 -22 -13 -18 5 -51 39 -39 39 1 0 -3 14 -9 30 -7 17 -11 60 -11 98
1 37 0 67 -2 67 -3 0 -8 -15 -13 -32z"/>
<path d="M0 2433 l0 -510 40 7 c32 6 42 4 50 -9 7 -13 10 -12 19 12 10 26 13
27 63 21 l53 -6 13 34 c6 19 12 44 12 56 0 12 4 22 9 22 5 0 77 -71 159 -157
83 -87 153 -155 157 -152 3 4 -64 78 -150 167 -168 173 -213 243 -62 97 50
-50 126 -122 168 -160 41 -39 -1 5 -94 97 -101 98 -168 172 -165 180 3 7 2 39
-2 71 -5 45 -3 60 8 66 11 6 13 20 7 60 -4 28 -11 53 -16 57 -5 3 -9 33 -9 68
0 35 -6 76 -14 92 -8 16 -16 45 -19 64 -3 19 -7 42 -10 50 -4 8 -11 34 -17 58
-7 27 -16 42 -27 42 -19 0 -38 22 -58 68 -8 17 -18 32 -23 32 -5 0 -28 19 -51
41 l-41 41 0 -509z"/>
<path d="M130 1725 c-63 -7 -118 -13 -122 -14 -5 -1 -8 -18 -8 -38 1 -35 2
-37 15 -19 14 19 15 19 34 2 19 -18 33 -18 93 0 12 4 15 0 11 -15 -3 -12 -10
-18 -15 -15 -5 3 -38 1 -72 -6 -61 -11 -64 -13 -62 -41 l1 -30 55 7 c69 8 75
12 56 33 -14 15 -14 18 -1 18 8 0 15 -6 15 -13 0 -22 16 -24 97 -13 101 15
119 31 31 27 -44 -1 -72 2 -82 11 -9 8 -14 16 -11 19 2 3 11 0 18 -6 9 -8 24
-9 44 -3 16 5 42 6 57 4 31 -6 55 11 51 35 -2 9 -4 29 -4 45 -1 25 -4 27 -43
26 -24 -1 -95 -8 -158 -14z"/>
<path d="M680 1666 c-30 -17 -66 -32 -80 -33 -14 0 -124 -19 -245 -41 -121
-23 -245 -44 -276 -47 -31 -4 -61 -10 -68 -14 -8 -5 -11 -79 -9 -277 l3 -269
114 2 c100 1 119 5 167 28 30 15 82 31 117 36 34 5 71 12 82 14 11 3 34 7 52
11 35 7 43 39 10 42 -35 2 -37 17 -7 37 52 35 39 46 -42 39 -39 -3 -92 -3
-117 1 -45 7 -45 8 -20 19 15 6 26 14 25 17 0 4 29 37 66 75 60 62 90 94 221
242 44 50 42 51 139 -54 37 -39 69 -70 72 -67 2 2 -33 43 -77 90 -45 46 -84
89 -86 95 -2 5 2 20 9 33 25 47 9 53 -50 21z"/>
<path d="M7886 1435 c3 -16 1 -50 -5 -75 -10 -42 -9 -46 15 -67 23 -21 34 -23
155 -23 108 0 128 2 117 13 -7 8 -20 12 -30 9 -23 -6 -23 7 -1 23 14 10 20 10
31 -2 11 -11 17 -11 29 -1 12 10 18 8 32 -11 13 -17 25 -22 47 -18 l29 4 -32
2 c-25 1 -33 6 -33 20 0 21 -26 36 -35 20 -4 -6 -20 -1 -41 12 -33 20 -36 20
-60 4 -19 -12 -23 -22 -19 -38 4 -14 -1 -11 -14 11 -12 19 -26 30 -32 26 -6
-4 -15 0 -20 7 -8 12 -11 12 -19 -1 -8 -12 -10 -12 -10 -1 0 11 -3 11 -17 0
-13 -11 -17 -11 -20 -1 -3 6 -11 12 -19 12 -8 0 -14 10 -15 23 0 21 -1 21 -9
2 -8 -19 -9 -19 -9 4 -1 17 3 22 14 17 18 -7 18 2 0 34 -9 15 -14 19 -15 10 0
-13 -1 -13 -10 0 -7 11 -8 7 -4 -15z"/>
<path d="M897 1401 c4 -17 0 -21 -18 -22 -38 -2 -43 -3 -66 -19 -24 -15 -30
-36 -13 -42 23 -8 -10 -28 -55 -33 -27 -3 -52 -10 -56 -16 -5 -8 -8 -7 -12 2
-4 10 -6 10 -6 2 -1 -7 -8 -13 -16 -13 -8 0 -15 -4 -15 -10 0 -9 79 -5 130 7
14 3 36 5 50 4 20 -2 23 0 13 10 -23 24 -14 31 40 28 32 -1 51 2 50 8 -1 6 6
13 17 16 12 3 17 0 14 -8 -4 -10 9 -13 50 -14 l56 0 0 33 c0 29 -3 33 -20 29
-11 -3 -20 -9 -20 -13 0 -4 -11 -10 -25 -12 -14 -3 -25 -1 -25 3 0 5 6 9 14 9
20 0 29 16 21 40 -7 21 -35 28 -35 9 0 -5 -4 -8 -9 -4 -5 3 -16 -2 -24 -10
-14 -13 -16 -13 -19 7 -2 12 -8 23 -15 25 -7 3 -9 -3 -6 -16z"/>
</g>
</svg>
